<mxfile host="app.diagrams.net" modified="2021-11-08T05:57:06.752Z" agent="5.0 (Macintosh; Intel Mac OS X 10_15_6) AppleWebKit/605.1.15 (KHTML, like Gecko) Version/14.0.3 Safari/605.1.15" etag="w31Q2mT7ZVgaccQxvLle" version="14.7.0" type="github">
  <diagram id="LVIhMywnja3cj5HMGz6J" name="Page-1">
    <mxGraphModel dx="946" dy="538" grid="1" gridSize="10" guides="1" tooltips="1" connect="1" arrows="1" fold="1" page="1" pageScale="1" pageWidth="827" pageHeight="1169" math="0" shadow="0">
      <root>
        <mxCell id="0" />
        <mxCell id="1" parent="0" />
        <mxCell id="lKzFzqkiR-P2Bk5W7pET-1" value="" style="shape=ext;double=1;rounded=0;whiteSpace=wrap;html=1;dashed=1;labelBackgroundColor=none;" vertex="1" parent="1">
          <mxGeometry x="50" y="50" width="520" height="400" as="geometry" />
        </mxCell>
        <mxCell id="lKzFzqkiR-P2Bk5W7pET-2" style="edgeStyle=orthogonalEdgeStyle;rounded=0;orthogonalLoop=1;jettySize=auto;html=1;entryX=1;entryY=0.667;entryDx=0;entryDy=0;entryPerimeter=0;endArrow=classic;endFill=1;exitX=-0.012;exitY=0.667;exitDx=0;exitDy=0;exitPerimeter=0;" edge="1" parent="1">
          <mxGeometry relative="1" as="geometry">
            <mxPoint x="449.03999999999996" y="272.08000000000004" as="sourcePoint" />
            <mxPoint x="250" y="272.08000000000004" as="targetPoint" />
          </mxGeometry>
        </mxCell>
        <mxCell id="lKzFzqkiR-P2Bk5W7pET-3" value="&lt;font color=&quot;#67ab9f&quot;&gt;&lt;span style=&quot;font-size: 15px&quot;&gt;&lt;b&gt;认证成功&lt;/b&gt;&lt;/span&gt;&lt;/font&gt;" style="edgeLabel;html=1;align=center;verticalAlign=middle;resizable=0;points=[];labelBackgroundColor=none;" vertex="1" connectable="0" parent="lKzFzqkiR-P2Bk5W7pET-2">
          <mxGeometry x="-0.045" y="-2" relative="1" as="geometry">
            <mxPoint y="10" as="offset" />
          </mxGeometry>
        </mxCell>
        <mxCell id="lKzFzqkiR-P2Bk5W7pET-4" value="&lt;b&gt;&lt;font style=&quot;font-size: 14px&quot;&gt;应用服务&lt;/font&gt;&lt;/b&gt;" style="rounded=0;whiteSpace=wrap;html=1;labelPosition=left;verticalLabelPosition=top;align=right;verticalAlign=bottom;dashed=1;fillColor=#f5f5f5;strokeColor=#666666;fontColor=#333333;" vertex="1" parent="1">
          <mxGeometry x="450" y="90" width="80" height="240" as="geometry" />
        </mxCell>
        <mxCell id="lKzFzqkiR-P2Bk5W7pET-5" value="&lt;h1 style=&quot;margin: 0px ; padding: 0px ; font-stretch: normal ; line-height: 26px ; font-family: &amp;#34;pingfang sc&amp;#34; , &amp;#34;lantinghei sc&amp;#34; , &amp;#34;microsoft yahei&amp;#34; , &amp;#34;arial&amp;#34; , , sans-serif , &amp;#34;tahoma&amp;#34; ; word-break: break-all ; position: relative ; color: rgb(51 , 51 , 51)&quot;&gt;&lt;span class=&quot;ask-title&quot; style=&quot;display: inline ; line-height: 34px ; font-weight: 400 ; overflow: hidden ; vertical-align: middle&quot;&gt;&lt;font style=&quot;font-size: 11px&quot;&gt;②&lt;/font&gt;&lt;/span&gt;&lt;/h1&gt;" style="text;html=1;align=center;verticalAlign=middle;resizable=0;points=[];autosize=1;strokeColor=none;" vertex="1" parent="1">
          <mxGeometry x="229" y="204" width="30" height="40" as="geometry" />
        </mxCell>
        <mxCell id="lKzFzqkiR-P2Bk5W7pET-6" style="edgeStyle=orthogonalEdgeStyle;rounded=0;orthogonalLoop=1;jettySize=auto;html=1;entryX=0;entryY=0.5;entryDx=0;entryDy=0;endArrow=none;endFill=0;" edge="1" parent="1">
          <mxGeometry relative="1" as="geometry">
            <mxPoint x="250" y="232" as="sourcePoint" />
            <mxPoint x="450" y="232" as="targetPoint" />
          </mxGeometry>
        </mxCell>
        <mxCell id="lKzFzqkiR-P2Bk5W7pET-7" value="&lt;b&gt;&lt;font color=&quot;#67ab9f&quot; style=&quot;font-size: 15px&quot;&gt;认证响应&lt;/font&gt;&lt;/b&gt;&lt;br&gt;签名" style="edgeLabel;html=1;align=center;verticalAlign=middle;resizable=0;points=[];labelBackgroundColor=none;" vertex="1" connectable="0" parent="lKzFzqkiR-P2Bk5W7pET-6">
          <mxGeometry x="0.03" y="1" relative="1" as="geometry">
            <mxPoint y="1" as="offset" />
          </mxGeometry>
        </mxCell>
        <mxCell id="lKzFzqkiR-P2Bk5W7pET-8" value="&lt;b&gt;&lt;font style=&quot;font-size: 14px&quot;&gt;FIDO客户端&lt;/font&gt;&lt;/b&gt;" style="rounded=0;whiteSpace=wrap;html=1;labelPosition=left;verticalLabelPosition=top;align=right;verticalAlign=bottom;dashed=1;fillColor=#f5f5f5;strokeColor=#666666;fontColor=#333333;" vertex="1" parent="1">
          <mxGeometry x="170" y="90" width="80" height="240" as="geometry" />
        </mxCell>
        <mxCell id="lKzFzqkiR-P2Bk5W7pET-9" style="edgeStyle=orthogonalEdgeStyle;rounded=0;orthogonalLoop=1;jettySize=auto;html=1;entryX=1.025;entryY=0.3;entryDx=0;entryDy=0;entryPerimeter=0;dashed=1;endArrow=classic;endFill=1;" edge="1" parent="1">
          <mxGeometry relative="1" as="geometry">
            <mxPoint x="250" y="192" as="sourcePoint" />
            <mxPoint x="231" y="192" as="targetPoint" />
          </mxGeometry>
        </mxCell>
        <mxCell id="lKzFzqkiR-P2Bk5W7pET-10" style="edgeStyle=orthogonalEdgeStyle;rounded=0;orthogonalLoop=1;jettySize=auto;html=1;entryX=0;entryY=0.5;entryDx=0;entryDy=0;endArrow=classic;endFill=1;exitX=0;exitY=0.5;exitDx=0;exitDy=0;dashed=1;" edge="1" parent="1">
          <mxGeometry relative="1" as="geometry">
            <mxPoint x="450" y="232" as="sourcePoint" />
            <mxPoint x="470" y="232" as="targetPoint" />
            <Array as="points">
              <mxPoint x="460" y="232" />
              <mxPoint x="460" y="232" />
            </Array>
          </mxGeometry>
        </mxCell>
        <mxCell id="lKzFzqkiR-P2Bk5W7pET-11" style="edgeStyle=orthogonalEdgeStyle;rounded=0;orthogonalLoop=1;jettySize=auto;html=1;entryX=-0.012;entryY=0.167;entryDx=0;entryDy=0;entryPerimeter=0;exitX=0.988;exitY=0.167;exitDx=0;exitDy=0;exitPerimeter=0;endArrow=none;endFill=0;" edge="1" parent="1">
          <mxGeometry relative="1" as="geometry">
            <mxPoint x="249.03999999999996" y="152.08000000000004" as="sourcePoint" />
            <mxPoint x="449.03999999999996" y="152.08000000000004" as="targetPoint" />
          </mxGeometry>
        </mxCell>
        <mxCell id="lKzFzqkiR-P2Bk5W7pET-12" value="&lt;font color=&quot;#67ab9f&quot; style=&quot;font-size: 15px&quot;&gt;&lt;b&gt;初始化认证&lt;/b&gt;&lt;/font&gt;" style="edgeLabel;html=1;align=center;verticalAlign=middle;resizable=0;points=[];labelBackgroundColor=none;" vertex="1" connectable="0" parent="lKzFzqkiR-P2Bk5W7pET-11">
          <mxGeometry x="-0.1404" relative="1" as="geometry">
            <mxPoint x="15" y="-10" as="offset" />
          </mxGeometry>
        </mxCell>
        <mxCell id="lKzFzqkiR-P2Bk5W7pET-13" style="edgeStyle=orthogonalEdgeStyle;rounded=0;orthogonalLoop=1;jettySize=auto;html=1;entryX=1;entryY=0.5;entryDx=0;entryDy=0;dashed=1;endArrow=none;endFill=0;" edge="1" parent="1">
          <mxGeometry relative="1" as="geometry">
            <mxPoint x="230" y="232" as="sourcePoint" />
            <mxPoint x="250" y="232" as="targetPoint" />
            <Array as="points">
              <mxPoint x="240" y="232" />
              <mxPoint x="240" y="232" />
            </Array>
          </mxGeometry>
        </mxCell>
        <mxCell id="lKzFzqkiR-P2Bk5W7pET-14" value="&lt;b&gt;FIDO认证器&lt;/b&gt;" style="rounded=0;whiteSpace=wrap;html=1;fillColor=#dae8fc;strokeColor=#6c8ebf;" vertex="1" parent="1">
          <mxGeometry x="190" y="110" width="40" height="200" as="geometry" />
        </mxCell>
        <mxCell id="lKzFzqkiR-P2Bk5W7pET-15" style="edgeStyle=orthogonalEdgeStyle;rounded=0;orthogonalLoop=1;jettySize=auto;html=1;dashed=1;endArrow=classic;endFill=1;exitX=0.013;exitY=0.167;exitDx=0;exitDy=0;exitPerimeter=0;entryX=0.05;entryY=0.1;entryDx=0;entryDy=0;entryPerimeter=0;" edge="1" parent="1">
          <mxGeometry relative="1" as="geometry">
            <mxPoint x="451.03999999999996" y="152.08000000000004" as="sourcePoint" />
            <mxPoint x="472" y="152" as="targetPoint" />
            <Array as="points">
              <mxPoint x="460" y="152" />
              <mxPoint x="460" y="151" />
            </Array>
          </mxGeometry>
        </mxCell>
        <mxCell id="lKzFzqkiR-P2Bk5W7pET-16" style="edgeStyle=orthogonalEdgeStyle;rounded=0;orthogonalLoop=1;jettySize=auto;html=1;entryX=1;entryY=0.333;entryDx=0;entryDy=0;entryPerimeter=0;endArrow=none;endFill=0;" edge="1" parent="1">
          <mxGeometry relative="1" as="geometry">
            <mxPoint x="450" y="192" as="sourcePoint" />
            <mxPoint x="250" y="191.91999999999996" as="targetPoint" />
            <Array as="points">
              <mxPoint x="300" y="192" />
              <mxPoint x="300" y="192" />
            </Array>
          </mxGeometry>
        </mxCell>
        <mxCell id="lKzFzqkiR-P2Bk5W7pET-17" value="&lt;b&gt;&lt;font color=&quot;#67ab9f&quot; style=&quot;font-size: 15px&quot;&gt;认证请求&lt;/font&gt;&lt;/b&gt;&lt;br&gt;挑战值及策略" style="edgeLabel;html=1;align=center;verticalAlign=middle;resizable=0;points=[];labelBackgroundColor=none;" vertex="1" connectable="0" parent="lKzFzqkiR-P2Bk5W7pET-16">
          <mxGeometry x="0.0605" relative="1" as="geometry">
            <mxPoint x="6" as="offset" />
          </mxGeometry>
        </mxCell>
        <mxCell id="lKzFzqkiR-P2Bk5W7pET-18" style="edgeStyle=orthogonalEdgeStyle;rounded=0;orthogonalLoop=1;jettySize=auto;html=1;exitX=0.025;exitY=0.3;exitDx=0;exitDy=0;exitPerimeter=0;dashed=1;endArrow=none;endFill=0;" edge="1" parent="1">
          <mxGeometry relative="1" as="geometry">
            <mxPoint x="450" y="192" as="targetPoint" />
            <mxPoint x="471" y="192" as="sourcePoint" />
          </mxGeometry>
        </mxCell>
        <mxCell id="lKzFzqkiR-P2Bk5W7pET-19" value="&lt;b&gt;FIDO服务&lt;/b&gt;" style="rounded=0;whiteSpace=wrap;html=1;fillColor=#ffe6cc;strokeColor=#d79b00;" vertex="1" parent="1">
          <mxGeometry x="470" y="110" width="40" height="200" as="geometry" />
        </mxCell>
        <mxCell id="lKzFzqkiR-P2Bk5W7pET-20" value="&lt;h1 style=&quot;margin: 0px ; padding: 0px ; font-stretch: normal ; line-height: 26px ; font-family: &amp;#34;pingfang sc&amp;#34; , &amp;#34;lantinghei sc&amp;#34; , &amp;#34;microsoft yahei&amp;#34; , &amp;#34;arial&amp;#34; , , sans-serif , &amp;#34;tahoma&amp;#34; ; word-break: break-all ; position: relative ; color: rgb(51 , 51 , 51)&quot;&gt;&lt;span class=&quot;ask-title&quot; style=&quot;display: inline ; line-height: 34px ; font-weight: 400 ; overflow: hidden ; vertical-align: middle&quot;&gt;&lt;font style=&quot;font-size: 11px&quot;&gt;①&lt;/font&gt;&lt;/span&gt;&lt;/h1&gt;" style="text;html=1;align=center;verticalAlign=middle;resizable=0;points=[];autosize=1;strokeColor=none;" vertex="1" parent="1">
          <mxGeometry x="229" y="164" width="30" height="40" as="geometry" />
        </mxCell>
        <mxCell id="lKzFzqkiR-P2Bk5W7pET-21" value="&lt;h1 style=&quot;margin: 0px ; padding: 0px ; font-stretch: normal ; line-height: 26px ; font-family: &amp;#34;pingfang sc&amp;#34; , &amp;#34;lantinghei sc&amp;#34; , &amp;#34;microsoft yahei&amp;#34; , &amp;#34;arial&amp;#34; , , sans-serif , &amp;#34;tahoma&amp;#34; ; word-break: break-all ; position: relative ; color: rgb(51 , 51 , 51)&quot;&gt;&lt;span class=&quot;ask-title&quot; style=&quot;display: inline ; line-height: 34px ; font-weight: 400 ; overflow: hidden ; vertical-align: middle&quot;&gt;&lt;font style=&quot;font-size: 11px&quot;&gt;③&lt;/font&gt;&lt;/span&gt;&lt;/h1&gt;" style="text;html=1;align=center;verticalAlign=middle;resizable=0;points=[];autosize=1;strokeColor=none;" vertex="1" parent="1">
          <mxGeometry x="441" y="204" width="30" height="40" as="geometry" />
        </mxCell>
        <mxCell id="lKzFzqkiR-P2Bk5W7pET-22" value="&lt;h1 style=&quot;text-align: left ; margin: 0px ; padding: 0px ; font-stretch: normal ; line-height: 26px ; word-break: break-all ; position: relative ; color: rgb(51 , 51 , 51)&quot;&gt;&lt;span class=&quot;ask-title&quot; style=&quot;display: inline ; line-height: 34px ; font-weight: 400 ; overflow: hidden ; vertical-align: middle&quot;&gt;&lt;font style=&quot;font-size: 13px&quot;&gt;①：&lt;/font&gt;&lt;font style=&quot;font-size: 13px&quot;&gt;解析认证策略，根据挑战值创建最终挑战值&lt;/font&gt;&lt;/span&gt;&lt;/h1&gt;&lt;h1 style=&quot;text-align: left ; margin: 0px ; padding: 0px ; font-stretch: normal ; line-height: 26px ; word-break: break-all ; position: relative ; color: rgb(51 , 51 , 51) ; font-size: 13px&quot;&gt;&lt;span class=&quot;ask-title&quot; style=&quot;display: inline ; line-height: 34px ; font-weight: 400 ; overflow: hidden ; vertical-align: middle&quot;&gt;&lt;font style=&quot;font-size: 13px&quot;&gt;②：对最终挑战值及策略信息进行签名创建认证响应数据&lt;/font&gt;&lt;/span&gt;&lt;/h1&gt;&lt;h1 style=&quot;text-align: left ; margin: 0px ; padding: 0px ; font-stretch: normal ; line-height: 26px ; word-break: break-all ; position: relative ; color: rgb(51 , 51 , 51) ; font-size: 13px&quot;&gt;&lt;span style=&quot;font-weight: 400 ; text-align: center&quot;&gt;③：验证签名数据，判断用户合法性&lt;/span&gt;&lt;/h1&gt;" style="text;html=1;align=center;verticalAlign=middle;resizable=0;points=[];autosize=1;strokeColor=none;" vertex="1" parent="1">
          <mxGeometry x="180" y="330" width="340" height="100" as="geometry" />
        </mxCell>
      </root>
    </mxGraphModel>
  </diagram>
</mxfile>
